<?xml version="1.0" encoding="UTF-8"?>
<svg id="Layer_2" data-name="Layer 2" xmlns="http://www.w3.org/2000/svg" viewBox="0 0 1008 360">
  <defs>
    <style>
      .cls-1 {
        fill: #fff;
      }
    </style>
  </defs>
  <g id="Logotypes">
    <g>
      <polygon class="cls-1" points="833.14 298.29 833.14 0 761.14 0 761.14 298.29 761.14 360 833.14 360 1008 360 1008 298.29 833.14 298.29"/>
      <polygon class="cls-1" points="493.71 0 421.71 0 421.71 298.29 421.71 360 493.71 360 668.57 360 668.57 298.29 493.71 298.29 493.71 0"/>
      <path class="cls-1" d="M125.37,0L0,360h74.02l73.01-236.14c6.04-19.13,15.11-55.38,15.11-55.38h1s8.56,36.25,14.6,55.38l74.02,236.14h76.02L200.9,0h-75.53Z"/>
    </g>
  </g>
</svg>